<svg width="50" height="50" viewBox="0 0 50 50" fill="none" xmlns="http://www.w3.org/2000/svg">
<path d="M25 0C11.2147 0 0 11.2147 0 25C0 38.7853 11.2147 50 25 50C38.7853 50 50 38.7853 50 25C50 11.2147 38.7824 0 25 0ZM3.01471 26.4706H11.6529C11.7824 29.4824 12.2735 32.4441 13.1618 35.2941H5.50588C4.09118 32.6294 3.22353 29.6382 3.01471 26.4706ZM11.6529 23.5294H3.01471C3.22353 20.3618 4.09118 17.3706 5.50588 14.7059H13.1529C12.2676 17.5559 11.7794 20.5176 11.6529 23.5294ZM16.2676 14.7059H33.6088C34.5794 17.5441 35.1441 20.5059 35.2824 23.5294H14.5941C14.7294 20.5059 15.2971 17.5441 16.2676 14.7059ZM14.5941 26.4706H35.2853C35.1412 29.4941 34.5765 32.4559 33.6029 35.2941H16.2765C15.3029 32.4559 14.7353 29.4941 14.5941 26.4706ZM38.2265 26.4706H46.9853C46.7765 29.6382 45.9088 32.6294 44.4941 35.2941H36.7176C37.6059 32.4441 38.0971 29.4824 38.2265 26.4706ZM38.2265 23.5294C38.1 20.5176 37.6118 17.5559 36.7265 14.7059H44.4941C45.9059 17.3706 46.7735 20.3618 46.9853 23.5294H38.2265ZM42.6059 11.7647H35.6824C34.5294 8.95588 32.9882 6.3 31.1235 3.82353C35.7647 5.16765 39.7647 8 42.6059 11.7647ZM26.6412 3.02353C29.0647 5.66176 31.0059 8.61176 32.4412 11.7647H17.4353C18.8676 8.61471 20.8059 5.66765 23.2294 3.02941C23.8147 2.98529 24.4 2.94118 25 2.94118C25.5529 2.94118 26.0971 2.98529 26.6412 3.02353ZM18.7265 3.86176C16.8765 6.32647 15.3412 8.97059 14.1971 11.7647H7.39118C10.2 8.03824 14.1471 5.22353 18.7265 3.86176ZM7.39118 38.2353H14.2059C15.3559 41.0324 16.8971 43.6794 18.7559 46.1441C14.1647 44.7882 10.2059 41.9706 7.39118 38.2353ZM23.2647 46.9706C20.8353 44.3324 18.8882 41.3853 17.4471 38.2353H32.4294C30.9882 41.3882 29.0412 44.3382 26.6088 46.9765C26.0765 47.0147 25.5412 47.0588 25 47.0588C24.4118 47.0588 23.8382 47.0147 23.2647 46.9706ZM31.0912 46.1853C32.9618 43.7088 34.5147 41.0471 35.6706 38.2353H42.6059C39.7588 42.0088 35.7471 44.8441 31.0912 46.1853Z" fill="#949494"/>
</svg>
