<svg width="181" height="33" viewBox="0 0 181 33" fill="none" xmlns="http://www.w3.org/2000/svg">
<path d="M29.7625 23.7802L24.6752 19.52C25.2124 16.7803 24.7302 15.4361 23.7331 13.2886C22.8306 11.8593 22.2279 11.1394 20.7812 10.173C18.4506 8.82853 16.6768 8.49618 14.3749 8.83768C11.4698 9.52467 10.19 10.4651 8.59669 12.3984C7.29678 14.4433 6.85031 15.728 6.90088 18.3119C7.0883 20.1379 7.47898 21.1006 8.53389 22.6992C9.90329 24.5157 10.9519 25.2799 13.37 26.1328C15.1292 26.6199 16.1787 26.6194 18.1433 26.1964L22.6654 30.393C20.4582 31.4282 19.1117 31.7601 16.4475 31.9826C13.9057 32.0001 12.5704 31.793 10.2925 31.156C7.8258 30.1883 6.68491 29.4776 4.89109 28.0404C2.4951 25.6612 1.45967 24.2005 0.494628 21.2368C-0.349866 17.274 -0.1354 15.1782 1.31111 11.6354C2.70257 9.0792 3.70489 7.85845 5.95881 6.10352C8.34947 4.52896 9.76541 3.83608 12.5535 3.2422C16.3812 2.75079 18.4506 2.96743 22.0373 4.25956C24.8935 5.56638 26.1042 6.52456 27.8783 8.45617C29.9053 11.1594 30.7266 12.7848 31.2071 16.0228C31.3613 19.2769 31.0288 20.9707 29.7625 23.7802Z" fill="#F9DB24"/>
<path d="M28.4436 33L15.631 22.1905C16.1183 21.5879 16.5427 21.2866 17.2012 20.8553C18.0279 20.4396 18.4935 20.2605 19.3366 20.0922C20.353 19.992 20.883 20.0187 21.7233 20.2194C22.6901 20.4579 23.2089 20.6968 24.0471 21.3004L24.6752 21.8726L29.7625 25.8785L40 20.7281L28.4436 33Z" fill="#F9DB24"/>
<path d="M62.136 28.952L59.592 25.904C58.888 26.08 58.168 26.168 57.432 26.168C55.864 26.168 54.424 25.8 53.112 25.064C51.8 24.328 50.76 23.312 49.992 22.016C49.224 20.704 48.84 19.224 48.84 17.576C48.84 15.944 49.224 14.48 49.992 13.184C50.76 11.872 51.8 10.848 53.112 10.112C54.424 9.376 55.864 9.008 57.432 9.008C59.016 9.008 60.456 9.376 61.752 10.112C63.064 10.848 64.096 11.872 64.848 13.184C65.616 14.48 66 15.944 66 17.576C66 19.064 65.68 20.424 65.04 21.656C64.416 22.872 63.56 23.864 62.472 24.632L66.312 28.952H62.136ZM52.296 17.576C52.296 18.696 52.512 19.68 52.944 20.528C53.376 21.376 53.976 22.032 54.744 22.496C55.528 22.944 56.424 23.168 57.432 23.168C58.44 23.168 59.328 22.944 60.096 22.496C60.864 22.032 61.464 21.376 61.896 20.528C62.328 19.68 62.544 18.696 62.544 17.576C62.544 16.456 62.328 15.48 61.896 14.648C61.464 13.8 60.864 13.152 60.096 12.704C59.328 12.256 58.44 12.032 57.432 12.032C56.424 12.032 55.528 12.256 54.744 12.704C53.976 13.152 53.376 13.8 52.944 14.648C52.512 15.48 52.296 16.456 52.296 17.576ZM71.8586 9.248V19.616C71.8586 20.752 72.1546 21.624 72.7466 22.232C73.3386 22.824 74.1706 23.12 75.2426 23.12C76.3306 23.12 77.1706 22.824 77.7626 22.232C78.3546 21.624 78.6506 20.752 78.6506 19.616V9.248H82.0346V19.592C82.0346 21.016 81.7226 22.224 81.0986 23.216C80.4906 24.192 79.6666 24.928 78.6266 25.424C77.6026 25.92 76.4586 26.168 75.1946 26.168C73.9466 26.168 72.8106 25.92 71.7866 25.424C70.7786 24.928 69.9786 24.192 69.3866 23.216C68.7946 22.224 68.4986 21.016 68.4986 19.592V9.248H71.8586ZM88.641 9.248V26H85.281V9.248H88.641ZM95.3927 23.168H102.929V26H91.5047V23.408L98.9927 12.08H91.5047V9.248H102.929V11.84L95.3927 23.168ZM109.221 23.168H116.757V26H105.333V23.408L112.821 12.08H105.333V9.248H116.757V11.84L109.221 23.168ZM122.977 9.248V26H119.617V9.248H122.977ZM136.641 9.248V11.96H129.657V16.256H135.009V18.92H129.657V26H126.297V9.248H136.641ZM152.343 9.248L146.679 20.168V26H143.319V20.168L137.631 9.248H141.423L145.023 16.904L148.599 9.248H152.343Z" fill="#F9DB24"/>
</svg>
