<svg width="28" height="31" viewBox="0 0 28 31" fill="none" xmlns="http://www.w3.org/2000/svg">
<path d="M25 5.18919C26.2091 5.18919 27.1892 4.20906 27.1892 3C27.1892 1.79094 26.2091 0.810811 25 0.810811V5.18919ZM0 5.18919H25V0.810811H0V5.18919Z" fill="#FAEDF0"/>
<path d="M25 30.1892C26.2091 30.1892 27.1892 29.2091 27.1892 28C27.1892 26.7909 26.2091 25.8108 25 25.8108V30.1892ZM0 30.1892H25V25.8108H0V30.1892Z" fill="#FAEDF0"/>
<path d="M25 17.3513C26.2091 17.3513 27.1892 16.3712 27.1892 15.1621C27.1892 13.9531 26.2091 12.9729 25 12.9729V17.3513ZM0 17.3513H25V12.9729H0V17.3513Z" fill="#FAEDF0"/>
</svg>
