<svg width="44" height="51" viewBox="0 0 44 51" fill="none" xmlns="http://www.w3.org/2000/svg">
<path fill-rule="evenodd" clip-rule="evenodd" d="M6.21411 25.3017C5.88267 15.9515 12.9435 8.08721 22.0014 7.71802C31.0595 8.08721 38.1204 15.9515 37.789 25.3017C37.789 29.1853 41.8772 32.9686 41.997 36.861C41.997 36.9162 41.997 36.971 41.997 37.0262C42.0855 39.52 40.202 41.6172 37.786 41.7148H28.6667C28.6752 43.6256 27.9773 45.468 26.7155 46.8663C25.5021 48.2263 23.7927 49.0001 22.0014 49.0001C20.2102 49.0001 18.501 48.2263 17.2877 46.8663C16.0257 45.468 15.3278 43.6256 15.3363 41.7148H6.21411C3.79823 41.6172 1.91453 39.52 2.00299 37.0262C2.00299 36.971 2.00299 36.9162 2.00299 36.861C2.12586 32.9804 6.21411 29.1882 6.21411 25.3017Z" stroke="#949494" stroke-width="3" stroke-linecap="round" stroke-linejoin="round"/>
<line x1="5" y1="29.9761" x2="38.6993" y2="29.9761" stroke="#949494" stroke-width="3"/>
<path d="M25.0715 3.00007C25.0715 1.61936 23.9522 0.500069 22.5715 0.500069C21.1908 0.500069 20.0715 1.61936 20.0715 3.00007H25.0715ZM25.0715 7.71802V3.00007H20.0715V7.71802H25.0715Z" fill="#949494"/>
</svg>
