<svg width="50" height="50" viewBox="0 0 50 50" fill="none" xmlns="http://www.w3.org/2000/svg">
<path d="M24.9999 24.575C30.6643 24.575 35.2564 20.0064 35.2564 14.3708C35.2564 8.73527 30.6643 4.16675 24.9999 4.16675C19.3355 4.16675 14.7435 8.73527 14.7435 14.3708C14.7435 20.0064 19.3355 24.575 24.9999 24.575Z" fill="#949494"/>
<path d="M30.3418 28.8269H19.658C13.4615 28.8269 8.33325 33.929 8.33325 40.0938C8.33325 41.5819 8.97427 42.8575 10.2563 43.4952C12.1794 44.5582 16.4529 45.8336 24.9999 45.8336C33.547 45.8336 37.8203 44.5582 39.7435 43.4952C40.8118 42.8575 41.6666 41.5819 41.6666 40.0938C41.6666 33.7163 36.5385 28.8269 30.3418 28.8269Z" fill="#949494"/>
</svg>
