<svg width="62" height="10" viewBox="0 0 62 10" fill="none" xmlns="http://www.w3.org/2000/svg">
<g id="Nav dots">
<path id="Ellipse 23" d="M9.47771 4.73885C9.47771 7.35605 7.35605 9.47771 4.73885 9.47771C2.12166 9.47771 0 7.35605 0 4.73885C0 2.12166 2.12166 0 4.73885 0C7.35605 0 9.47771 2.12166 9.47771 4.73885Z" fill="#3E3E3E"/>
<path id="Ellipse 24" d="M61.9999 4.73885C61.9999 7.35605 59.8783 9.47771 57.2611 9.47771C54.6439 9.47771 52.5222 7.35605 52.5222 4.73885C52.5222 2.12166 54.6439 0 57.2611 0C59.8783 0 61.9999 2.12166 61.9999 4.73885Z" fill="#AAAAAA"/>
<path id="Ellipse 25" d="M44.6242 4.73885C44.6242 7.35605 42.5025 9.47771 39.8853 9.47771C37.2681 9.47771 35.1465 7.35605 35.1465 4.73885C35.1465 2.12166 37.2681 0 39.8853 0C42.5025 0 44.6242 2.12166 44.6242 4.73885Z" fill="#AAAAAA"/>
<path id="Ellipse 26" d="M27.2485 4.73885C27.2485 7.35605 25.1268 9.47771 22.5096 9.47771C19.8924 9.47771 17.7708 7.35605 17.7708 4.73885C17.7708 2.12166 19.8924 0 22.5096 0C25.1268 0 27.2485 2.12166 27.2485 4.73885Z" fill="#AAAAAA"/>
</g>
</svg>
